<?xml version="1.0" encoding="iso-8859-1"?>
<!-- Generator: Adobe Illustrator 19.0.0, SVG Export Plug-In . SVG Version: 6.00 Build 0)  -->
<svg version="1.1" id="Layer_1" xmlns="http://www.w3.org/2000/svg" xmlns:xlink="http://www.w3.org/1999/xlink" x="0px" y="0px"
	 viewBox="0 0 408.761 408.761" style="enable-background:new 0 0 408.761 408.761;" xml:space="preserve">
<g>
	<path style="fill:#FFBE00;" d="M204.384,408.761c-58.121,0-113.674-24.868-152.417-68.227
		C18.461,303.059,0.006,254.703,0.006,204.381C0.006,91.685,91.689,0,204.384,0c50.319,0,98.674,18.455,136.164,51.964
		c43.346,38.762,68.207,94.316,68.207,152.417C408.756,317.076,317.075,408.761,204.384,408.761"/>
	<path style="fill:#F4502A;" d="M377.756,204.379c0,18.08-2.77,35.521-7.909,51.901c-1.8,5.769-3.9,11.399-6.29,16.889
		c-18.871,43.651-55.172,78-100.131,94.261c-13.209,4.799-27.169,8.02-41.66,9.46c-5.719,0.58-11.51,0.87-17.38,0.87
		c-51.39,0-97.559-22.361-129.299-57.881c-0.26-0.29-0.521-0.589-0.79-0.879c-26.95-30.562-43.29-70.681-43.29-114.622
		c0-95.749,77.621-173.38,173.379-173.38c43.951,0,84.071,16.35,114.631,43.291c0.29,0.27,0.589,0.53,0.879,0.79
		C355.407,106.84,377.756,152.989,377.756,204.379"/>
	<path style="fill:#C29100;" d="M74.378,319.089c3.499,3.961,7.175,7.761,11.018,11.387c-3.585-3.385-7.023-6.919-10.309-10.596
		C74.853,319.619,74.619,319.351,74.378,319.089 M53.4,289.669l0.001,0.003C53.4,289.669,53.401,289.671,53.4,289.669 M53.1,289.137
		c0.013,0.024,0.026,0.046,0.039,0.069C53.125,289.182,53.113,289.161,53.1,289.137 M52.831,288.657
		c0.003,0.005,0.005,0.009,0.008,0.014C52.837,288.667,52.834,288.662,52.831,288.657 M52.636,288.306
		c0.025,0.045,0.051,0.092,0.076,0.137C52.686,288.397,52.661,288.352,52.636,288.306 M52.372,287.828
		c0.034,0.061,0.067,0.121,0.1,0.182C52.44,287.951,52.405,287.887,52.372,287.828 M52.116,287.36
		c0.055,0.101,0.11,0.201,0.165,0.302C52.225,287.561,52.171,287.462,52.116,287.36 M51.902,286.969
		c0.045,0.083,0.09,0.165,0.135,0.248C51.992,287.133,51.948,287.052,51.902,286.969 M51.666,286.531
		c0.047,0.088,0.096,0.178,0.144,0.266C51.761,286.708,51.713,286.619,51.666,286.531 M51.418,286.07
		c0.06,0.112,0.12,0.224,0.18,0.336C51.539,286.296,51.477,286.18,51.418,286.07 M51.186,285.635
		c0.06,0.112,0.119,0.224,0.179,0.336C51.305,285.858,51.246,285.748,51.186,285.635 M50.967,285.22
		c0.068,0.129,0.133,0.251,0.201,0.379C51.1,285.474,51.033,285.347,50.967,285.22 M50.732,284.774
		c0.066,0.126,0.133,0.253,0.199,0.379C50.864,285.027,50.798,284.901,50.732,284.774 M50.286,283.918
		c0.139,0.269,0.279,0.538,0.42,0.807C50.566,284.458,50.424,284.186,50.286,283.918 M152.004,39.053
		c-70.152,22.206-121,87.824-121,165.318c0,28.663,6.952,55.699,19.265,79.516c-12.312-23.816-19.263-50.849-19.263-79.508
		C31.007,126.886,81.853,61.261,152.004,39.053"/>
	<path style="fill:#BA3D20;" d="M204.384,31.001c-18.259,0-35.852,2.82-52.38,8.052C81.853,61.261,31.007,126.886,31.007,204.379
		c0,28.659,6.951,55.692,19.263,79.508c0.006,0.011,0.01,0.02,0.016,0.031c0.138,0.267,0.28,0.54,0.42,0.807
		c0.008,0.016,0.017,0.033,0.026,0.049c0.066,0.127,0.133,0.253,0.199,0.379c0.011,0.021,0.024,0.046,0.036,0.067
		c0.067,0.126,0.134,0.253,0.201,0.379c0.006,0.01,0.013,0.024,0.019,0.035c0.06,0.113,0.119,0.223,0.179,0.336
		c0.017,0.032,0.036,0.067,0.053,0.099c0.059,0.11,0.121,0.226,0.18,0.336c0.023,0.042,0.044,0.082,0.067,0.125
		c0.048,0.088,0.096,0.178,0.144,0.266c0.032,0.059,0.061,0.113,0.093,0.172c0.045,0.084,0.089,0.164,0.135,0.248
		c0.026,0.048,0.052,0.096,0.079,0.144c0.055,0.101,0.11,0.2,0.165,0.302c0.029,0.053,0.062,0.113,0.091,0.166
		c0.033,0.059,0.068,0.123,0.1,0.182c0.056,0.101,0.108,0.195,0.164,0.296c0.026,0.046,0.05,0.091,0.076,0.137
		c0.04,0.072,0.08,0.144,0.119,0.215c0.002,0.004,0.006,0.01,0.008,0.014c0.085,0.153,0.174,0.312,0.26,0.465
		c0.013,0.024,0.026,0.045,0.039,0.069c0.087,0.156,0.173,0.307,0.261,0.463c0.001,0.002,0,0,0.001,0.003
		c5.968,10.542,13.012,20.398,20.977,29.417c0.241,0.262,0.475,0.53,0.709,0.791c3.286,3.677,6.724,7.211,10.309,10.596
		c2.298,2.169,4.654,4.273,7.068,6.315c-25.53-30.2-40.919-69.241-40.919-111.88c0-95.751,77.619-173.37,173.379-173.37
		c42.631,0,81.68,15.39,111.87,40.919C305.005,54.871,257.484,31.001,204.384,31.001"/>
	<path style="fill:#BA3D20;" d="M257.567,167.169v39.81l-146.181,8.4l152.04,152.051c44.96-16.261,81.261-50.61,100.131-94.261
		L257.567,167.169"/>
	<polygon style="fill:#FFFFFF;" points="294.875,204.381 257.564,167.169 257.564,193.381 111.384,193.381 111.384,215.381 
		257.564,215.381 257.564,241.593 	"/>
</g>
<g>
</g>
<g>
</g>
<g>
</g>
<g>
</g>
<g>
</g>
<g>
</g>
<g>
</g>
<g>
</g>
<g>
</g>
<g>
</g>
<g>
</g>
<g>
</g>
<g>
</g>
<g>
</g>
<g>
</g>
</svg>
